<?xml version="1.0" encoding="utf-8"?>
<!-- Generator: Adobe Illustrator 26.0.1, SVG Export Plug-In . SVG Version: 6.00 Build 0)  -->
<svg version="1.1" id="Layer_1" xmlns="http://www.w3.org/2000/svg" xmlns:xlink="http://www.w3.org/1999/xlink" x="0px" y="0px"
	 viewBox="0 0 143.5 43.5" style="enable-background:new 0 0 143.5 43.5;" xml:space="preserve">
<style type="text/css">
	.st0{fill:#C1767D;}
	.st1{fill:#267980;}
</style>
<path class="st0" d="M21.4,0c3.1,0,5.8,3.4,8.1,10.3l0.4,0.3v0.3l-0.4,1.8c0.6,0,1.2,1.1,1.8,3.3c0.9,0.6,2,0.9,3.2,0.9l0.3,0.3v0.3
	c0,0.4-0.6,0.6-1.7,0.6v0.3l0.7,2.4l-0.3-0.3H33v0.6h0.3l0.3-0.3H34c0.3,1.8,0.6,2.7,1,2.7l-0.4,0.3v0.6H35v-0.6h0.7l1.4,3.6
	l-0.3,0.3c0.6,0,1.2,0.5,1.7,1.5l-0.3,0.3v0.3c1.3,1.2,2.1,2.8,2.1,4.5l-1.8,2.4h-0.7C34.6,36,33,35.3,33,34.7
	c2.1-0.5,3.2-0.9,3.2-1.2c0-0.8-2.1-5.2-6.3-13.3c-0.4,0-0.7-0.4-1-1.2c-1.4,0-2.1,0.3-2.1,0.9l-0.3-0.3H26l-1.4,1.2l-0.3-0.3h-0.3
	c-1.7,0.3-3.4,0.9-4.9,1.8L17.9,22c-0.4,0.5-1.9,1.4-4.6,2.4L11.6,29l0.4,0.3h0.3l-1,1.8l0.3,0.3v0.3c-0.7,2.7-1.4,4.4-2.1,5.1
	c0,0.6-0.2,0.9-0.7,0.9l1.1,4.8l-1.8,0.9c-1.9-0.2-2.8-0.9-2.8-2.1c0.2-3.3,0.8-6.5,1.7-9.7c-4.7-0.3-7-1.7-7-3.9v-0.6
	c3.3-2.1,6.7-3.9,10.2-5.5C14.5,7.2,18.2,0,21.4,0z M6.3,28.7v0.6h1.8l0.3-1.8H8.1L6.3,28.7z M22.1,3.7L17.9,9l0.3,0.3v0.3l-0.3,0.3
	h-0.4l-0.3-0.3V10l0.3,1.2h-0.3l0.3,0.3v0.6l-0.7,0.6v-1.5h-0.4l-1.1,3.3v0.3h0.4v-0.6h0.3v0.6c-0.2,1.2-0.6,1.8-1.1,1.8l-0.3-0.3
	l0.3,2.1v1.5l5.3-1.5l0.4,0.3H21l5-1.5l1,0.3l0.3-0.3l0.3,0.3l0.4-0.3v-0.3c0-1.7-1.9-6.1-5.6-13.3L22.1,3.7z"/>
<path class="st0" d="M46.3,4.8c1.3,0,2.5,1,3.4,3.1c-0.1,3-1.1,6-2.7,8.6c-1.3,6.3-2,10.4-2,12.5l0.3,2h0.3c1.7,0,7.5-5.2,17.3-15.6
	l1.7-0.4l0.7,1.2c0,2.1-1.9,4.9-5.8,8.6l-3.7,4.7c0,2.8,0.9,4.3,2.7,4.3h1.3c1.2,0,3.7-1,7.5-3.1l0.7,1.2v0.8
	c-1.1,2.8-3.5,5-6.4,5.8l-1.7,0.4c-3.7,0-6.3-1.8-7.8-5.4h-0.7c-2.5,2.1-4.4,3.1-5.8,3.1c-3.2,0-4.7-2.6-4.7-7.8
	c0-4.7,1.6-12.5,4.7-23.4L46,4.8H46.3z"/>
<path class="st0" d="M68.1,1.1h1.2c1.9,0,2.8,1,2.8,2.9v1.2c-0.3,0.8-1,1.2-2.4,1.2c-0.9,0-1.8-1-2.8-2.8
	C67.1,1.9,67.5,1.1,68.1,1.1z M68.1,20.2h1.7c0.5,0.2,1.1,1.1,1.7,2.9l-0.3,5.7c0.1,2.2,0.8,4.3,2,6.2v0.8l-1,1.2h-1.1
	c-2.7,0-4.1-2.8-4.1-8.2v-3.3C67,22,67.3,20.2,68.1,20.2L68.1,20.2z"/>
<path class="st0" d="M80,4.2h1.8l1.8,2.1v0.3c-2,1.7-3.7,5-5.1,10l-1.2,7.9h0.3c3.8-3.2,6.8-4.8,9-4.8c3.7,0,6.5,2.3,8.4,6.9v2.1
	c-1.3,2.7-5.3,5.4-12,8L80.9,37c-4-0.5-6-2.1-6-4.8v-1l0.9-1.4c-1.5,0-2.3-1.3-2.4-3.8c0-6.4,1.9-13.4,5.7-21.1L80,4.2z M77,30.1
	c1.5,2.1,2.6,3.1,3.3,3.1c2.8,0,6.4-2,10.5-5.9V26c-0.8-1.6-2.4-2.6-4.2-2.4C84.5,23.9,81.3,26,77,30.1z"/>
<path class="st0" d="M110.8,19.5l2.1,0.8c0,2.7-0.6,5.4-1.7,7.8l-0.3,2.3c0.1,2.3,1.2,4.4,3,5.9l0.2,1.7c-0.7,0.1-1.3,0.2-2,0.2
	c-1.4,0-3-1.4-4.9-4.1l-0.5-2.5l-0.1-0.9h-0.3c-4.4,4.1-7.6,6.2-9.8,6.3c-1,0-1.9-0.5-2.5-1.3l-0.2-1.6
	C95.1,24.7,100.8,19.8,110.8,19.5z M98.1,32.6l1.6-1.2c5.1-4,8-6.9,8.7-8.7h-0.3C102.3,24.7,98.9,28,98.1,32.6z"/>
<path class="st0" d="M136.8,20.1h2.9c2.5,0,3.8,1.3,3.8,3.8l-1.1,0.3l-3.2-0.6l-0.3,0.3h-0.3l-0.3-0.3H138l-0.8,0.3l-0.3-0.3V24
	l-0.3-0.3h-0.3l-2.3,1.3c0.1,0.8,2.6,3.2,7.6,7.3c0.9,1,1.5,2.2,1.7,3.5l-1.5,1.2c-6,0-9-1.4-9.1-4.1v-0.3l1.5-1.9
	c-3.1-3.1-4.8-5.7-5-7.7C130.1,21.1,132.6,20.1,136.8,20.1z M136.5,32.3l0.4,0.5l0.5,0.3l0.8,0.4l-1.8-1.5L136.5,32.3z"/>
<g>
	<path class="st1" d="M116.3,10.4c-0.6,0-1-0.3-1.4-0.9c-0.3-0.5-0.5-1.1-0.5-1.7c0-0.6,0.1-1,0.4-1.4c0.3-0.5,0.7-0.7,1.3-0.7
		c0.6,0,1.1,0.3,1.4,0.9c0.3,0.5,0.5,1.1,0.5,1.7c0,0.5-0.1,1-0.4,1.4C117.2,10.2,116.8,10.4,116.3,10.4z M124.2,11.3
		c1.2,0.7,1.8,1.6,1.8,2.7c0,1-0.5,1.9-1.5,2.5c-0.9,0.5-1.8,0.8-2.9,0.8c-1.1,0-2.1-0.3-2.9-0.8c-1-0.6-1.5-1.5-1.5-2.5
		c0-1,0.5-1.9,1.6-2.5l0,0c0-0.6,0.3-1.1,1-1.4c0.5-0.3,1.1-0.4,1.8-0.4c0.6,0,1.2,0.1,1.7,0.4C123.8,10.4,124.1,10.8,124.2,11.3z
		 M121.6,8.4c-0.6,0-1.1-0.3-1.5-0.8c-0.3-0.5-0.5-1.1-0.5-1.7s0.2-1.2,0.5-1.7c0.4-0.6,0.9-0.9,1.5-0.9c0.6,0,1.1,0.3,1.5,0.9
		c0.3,0.5,0.5,1.1,0.5,1.7c0,0.6-0.2,1.2-0.5,1.7C122.7,8.1,122.2,8.4,121.6,8.4z M126.8,10.4c-0.5,0-0.9-0.2-1.2-0.7
		c-0.3-0.4-0.4-0.9-0.4-1.4c0-0.9,0.3-1.6,0.8-2.2c0.4-0.4,0.8-0.6,1.3-0.6c0.5,0,0.9,0.2,1.3,0.7c0.3,0.4,0.4,0.9,0.4,1.4
		c0,0.9-0.3,1.6-0.8,2.2C127.7,10.2,127.3,10.4,126.8,10.4z"/>
</g>
</svg>
