<?xml version="1.0" encoding="utf-8"?>
<!-- Generator: Adobe Illustrator 26.0.1, SVG Export Plug-In . SVG Version: 6.00 Build 0)  -->
<svg version="1.1" id="Layer_1" xmlns="http://www.w3.org/2000/svg" xmlns:xlink="http://www.w3.org/1999/xlink" x="0px" y="0px"
	 viewBox="0 0 416 416" style="enable-background:new 0 0 416 416;" xml:space="preserve">
<style type="text/css">
	.st0{fill:#936350;}
</style>
<path class="st0" d="M208,0C93.3,0,0,93.3,0,208s93.3,208,208,208s208-93.3,208-208S322.7,0,208,0z M154.7,64h106.7
	c50,0,90.7,40.7,90.7,90.7v106.7c0,50-40.7,90.7-90.7,90.7H154.7c-50,0-90.7-40.7-90.7-90.7V154.7C64,104.7,104.7,64,154.7,64z
	 M154.7,96C122.3,96,96,122.3,96,154.7v106.7c0,32.3,26.3,58.7,58.7,58.7h106.7c32.3,0,58.7-26.3,58.7-58.7V154.7
	c0-32.3-26.3-58.7-58.7-58.7H154.7z M282.7,122.7c5.9,0,10.7,4.8,10.7,10.7s-4.8,10.7-10.7,10.7s-10.7-4.8-10.7-10.7
	S276.8,122.7,282.7,122.7z M208,128c44.1,0,80,35.9,80,80s-35.9,80-80,80s-80-35.9-80-80S163.9,128,208,128z M208,160
	c-26.5,0-48,21.5-48,48s21.5,48,48,48s48-21.5,48-48S234.5,160,208,160z"/>
</svg>
