<svg id="Layer_1" data-name="Layer 1" xmlns="http://www.w3.org/2000/svg" xmlns:xlink="http://www.w3.org/1999/xlink" viewBox="0 0 126.04 122.26"><defs><style>.cls-1{fill:#936350;}</style><symbol id="Search_2" data-name="Search 2" viewBox="0 0 35.87 34.79"><path class="cls-1" d="M.29,30.63A1.14,1.14,0,0,1,.37,29L10,20.31a1.14,1.14,0,0,1,1.6.08L15,24.18a1.14,1.14,0,0,1-.08,1.6L5.32,34.5a1.14,1.14,0,0,1-1.6-.08Z"/><path class="cls-1" d="M23.3,0A12.57,12.57,0,1,1,11.43,8.46,12.57,12.57,0,0,1,23.3,0m0,3.41a9.15,9.15,0,0,0-3,17.81,9,9,0,0,0,3,.51A9.18,9.18,0,0,0,32,15.56,9.17,9.17,0,0,0,26.3,3.91h0a9.24,9.24,0,0,0-3-.5Z"/></symbol></defs><use width="35.87" height="34.79" transform="scale(3.51)" xlink:href="#Search_2"/></svg>