<?xml version="1.0" encoding="utf-8"?>
<!-- Generator: Adobe Illustrator 26.0.1, SVG Export Plug-In . SVG Version: 6.00 Build 0)  -->
<svg version="1.1" id="Layer_1" xmlns="http://www.w3.org/2000/svg" xmlns:xlink="http://www.w3.org/1999/xlink" x="0px" y="0px"
	 viewBox="0 0 416 416" style="enable-background:new 0 0 416 416;" xml:space="preserve">
<style type="text/css">
	.st0{fill:#936350;}
</style>
<path class="st0" d="M208,0C93.1,0,0,93.1,0,208s93.1,208,208,208s208-93.1,208-208S322.9,0,208,0z M298.7,159.8c0,1.4,0,3.7,0,6
	c0,64.2-46.1,137.6-130.8,137.6c-25.8,0-50-8.3-70.4-21.9c3,0.7,6.8,0.7,10.6,0.7c21.1,0.8,40.9-7.6,56.7-20.4
	c-20.4,0-37.1-14.3-43.1-34c2.3,0.7,5.3,0.7,8.3,0.7c4.5,0,8.3-0.8,12.1-1.5c-21.3-4.5-37.1-24.9-37.1-48.4v-0.7
	c6.8,3.7,13.6,6,21.2,6c-12.1-9.1-20.4-23.5-20.4-40.9c0-8.4,2.2-17.4,6-24.2c22.8,29.5,56.8,49.9,94.6,52.2
	c-0.8-3.8-1.5-7.6-1.5-11.4c0-26.4,20.4-48.3,46.2-47.6c12.9,0,25,6,33.3,15.8c10.6-2.3,20.5-6,30.9-11.8
	c-3.7,11.4-10.6,20.5-20.4,26.5c9.1-1.6,18.2-3.8,26.5-7.6C315.4,144.7,307.8,153,298.7,159.8z"/>
</svg>
